<svg xmlns="http://www.w3.org/2000/svg" width="1254" height="1254"><path fill="#FBFBFC" d="M0 0h1254v1254H0zm375.938 111.875C351.39 143.006 357.66 209.768 362 247c4.295 35.966 11.436 71.361 24.006 105.431 2.835 7.991.869 13.5-2.006 21.194l-.932 2.501C370.595 409.008 353.57 437.812 325 459c.215 2.336.215 2.336 1 5 2.004 1.477 2.004 1.477 4.563 2.625l2.714 1.238A200 200 0 0 0 344 472l-1.687 2.063c-8.269 10.502-17.425 24.275-18.563 37.937.25 2 .25 2 1.25 3 1.768.25 3.54.474 5.313.688 14.326 2.379 22.008 9.925 30.78 20.94A193 193 0 0 0 394 569l2.934 2.379C413.11 584.39 431.559 593.649 450 603c0 2.724-1.088 4.104-2.457 6.46-20.847 36.637-34.949 80.03-35.668 122.567-.161 8.46-2.59 15.17-5.716 22.93-5.067 12.58-10.422 27.325-10.159 41.043l-2.422-.14c-15.409-.507-26.982 5.382-38.926 14.59L353 812v2h-2c-21.127 21.97-29.45 54.618-29.3 84.382.576 25.937 6.269 51.165 17.3 74.618l.878 1.927C345.67 987.605 353.48 999.013 362 1010c-2.458 2.476-4.926 4.93-7.465 7.324-10.668 10.197-18.034 22.43-18.703 37.446-.153 13.442 1.217 25.258 10.856 35.48 19.436 18.02 46.848 17.28 71.643 16.895 4.655-.184 9.252-.68 13.87-1.283 4.582.226 6.972 2.935 10.217 5.939 19.566 16.665 54.969 17.442 79.219 15.692 19.915-1.62 40.071-5.025 56.363-17.493l3.125-2.187c6.05-5.223 10.32-13.037 11.875-20.813l2 1c2.41.099 4.792.14 7.203.133l2.168.003q2.274 0 4.55-.006c2.306-.005 4.612 0 6.919.007q2.212 0 4.426-.004l2.074.006c3.988-.02 7.746-.374 11.66-1.139l.125 2.375c2.588 10.723 10.474 19.054 19.618 24.774 16.142 9.542 35.709 13.114 54.257 13.851l1.972.083c24.54.887 51.764-1.786 73.028-15.083a103 103 0 0 0 4-4c2.418-2.302 3.515-2.986 6.904-3.085l3.37.378c26.716 2.525 58.677 3.593 80.726-14.293 7.239-6.508 11.554-15.381 13-25q.097-2.656.063-5.312l-.028-2.676L891 1057l3.883-.34c5.161-.58 10.01-1.778 14.992-3.223l2.753-.797c24.154-7.237 46.687-19.31 65.153-36.578 1.976-1.836 4.009-3.54 6.094-5.25 31.444-27.577 48.992-72.878 52.125-113.812 1.281-30.387-4.022-57.41-12.812-86.375-6.416-21.387-4.578-37.747 5.875-57.187.435-.78.87-1.56 1.32-2.363 4.598-8.382 7.188-16.41 7.054-26.013l-.022-2.359c-.341-11.989-5.417-22.212-14.102-30.453-12.176-10.034-27.187-11.482-42.313-10.25-18.026 2.543-32.729 13.205-44.375 26.75-16.476 22.085-20.222 49.324-17.164 76.168 1.917 13.058 6.425 25.727 10.566 38.207 10.559 31.925 16.426 65.337.973 96.875l-1.336 2.79C921.52 938.763 908.728 950.71 893 959l1.172-3.27c2.865-8.175 5.371-16.305 7.14-24.793l.482-2.302c2.128-10.697 2.447-21.258 2.456-32.135l.002-2.304c-.016-11.02-.365-21.497-3.252-32.196l-.504-1.968C896.56 844.895 889.823 831.198 880 819l-1.672-2.168c-9.02-11.103-23.085-19.611-37.422-21.168A373 373 0 0 0 832 795l-.364-1.826c-2.102-10.418-4.242-20.776-7.636-30.861l-.68-2.023c-1.066-3.05-2.182-6-3.566-8.922-3.523-7.609-4.672-14.712-5.184-23.004-.229-3.649-.535-7.291-.836-10.934l-.177-2.196C810.255 675.662 796.857 638.152 777 604c2.145-2.145 3.807-2.943 6.559-4.18C801.32 591.68 817.733 582.244 833 570l3.02-2.402a228.6 228.6 0 0 0 37.683-38.832c7.109-8.836 15.63-12.226 26.742-13.442C903 515 903 515 904 514c-.271-16.01-10.6-30.56-21-42l3.36-1.207 4.39-1.606 2.21-.79c3.78-1.392 6.965-2.702 10.04-5.397-.22-3.659-.776-4.799-3.555-7.29a225 225 0 0 0-3.32-2.335C884.56 444.895 875.842 434.901 868 423l-2.121-3.219c-9.664-15.221-16.345-31.418-22.86-48.172q-1.025-2.622-2.156-5.2c-2.872-8.017 2.099-17.654 4.762-25.159 21.57-62.415 39.931-160.786 10.5-223.875-2.995-5.633-5.908-9.303-12.125-11.375-5.72-.32-10.347.334-15.75 2.313-.722.26-1.445.522-2.19.792-15.563 5.922-29.665 15.129-43.06 24.895-.551.4-1.102.8-1.67 1.21-7.328 5.335-14.376 10.982-21.33 16.79l-1.54 1.279c-9.327 7.768-18.006 16.016-26.523 24.659l-3.583 3.61q-3.27 3.294-6.53 6.596c-6.61 6.692-6.61 6.692-9.527 9.489-5.25 5.063-9.752 10.674-14.297 16.367l-2.352 2.93q-2.83 3.53-5.648 7.07l-3.2-.734c-8.41-1.912-16.837-3.73-25.3-5.391l-2.362-.48c-15.002-2.888-30.015-3.778-45.263-3.708l-2.57.007c-24.725.1-49.892 2.84-73.305 11.306l-.762-1.7c-2.653-4.929-6.635-9.04-10.238-13.3l-1.436-1.702c-12.526-14.794-25.567-29.64-40.287-42.298-2.175-1.91-4.292-3.874-6.405-5.853-6.427-5.998-13.165-11.47-20.142-16.815a484 484 0 0 1-4.98-3.894c-59.194-46.607-59.194-46.607-77.812-27.563" id="svg-layer-0" style="pointer-events: all;"/><path fill="#101110" d="M437 127c10.344 7.2 20.414 14.816 30 23l1.797 1.528a1720 1720 0 0 1 5.953 5.097l1.862 1.596c3.774 3.27 7.34 6.684 10.847 10.239 1.713 1.712 3.497 3.298 5.353 4.852 6.959 6.015 13.376 12.584 19.352 19.57 2.188 2.524 4.449 4.974 6.711 7.43 4.214 4.619 8.219 9.367 12.14 14.235a242 242 0 0 0 5.048 6.016C538 223 538 223 538 225l1.639-.487c14.634-4.3 29.243-7.459 44.361-9.513l2.271-.317c33.424-4.016 66.78.56 99.145 8.722C688 224 688 224 690 224c1.354-1.487 2.631-3.044 3.875-4.625a485 485 0 0 1 11.313-13.625l1.474-1.713q1.444-1.678 2.894-3.351a195 195 0 0 0 2.86-3.418c2.547-3.084 5.143-5.838 8.19-8.432 3.592-3.06 6.943-6.317 10.257-9.672l1.583-1.6q3.248-3.287 6.482-6.588c7.019-7.154 14.178-13.773 22.072-19.976q1.883-1.537 3.758-3.082c50.193-40.866 50.193-40.866 75.554-42.418 5.483.743 9.014 2.59 12.739 6.84C864.02 127.31 865.544 150.025 867 168l.336 3.543c4.808 59.576-3.867 123.393-24.898 179.279l-.97 2.615-.86 2.247c-1.399 5.333-.47 9.424 1.517 14.464l1.38 3.524 1.495 3.703.757 1.897c3.93 9.846 8.146 19.43 13.243 28.728l1.695 3.133C871.185 429.817 885.047 447.032 903 459c-.219 2.336-.219 2.336-1 5-1.969 1.477-1.969 1.477-4.5 2.625l-2.71 1.238A127 127 0 0 1 883 472l1.215 1.223c8.98 9.591 19.222 24.63 19.969 38.086C904 514 904 514 903 515c-1.956.248-3.915.473-5.875.688-13.537 2.058-20.854 9.279-29.016 19.734C856.654 549.944 843.143 563.342 828 574l-2.088 1.47C810.367 586.3 794.233 595.173 777 603l2.437 4.873q1.081 2.164 2.159 4.332c1.765 3.545 3.543 7.079 5.4 10.576C796.654 641.141 803.198 660.86 808 681l.589 2.464c3.652 15.708 6.393 32.414 6.5 48.56.097 8.815 2.977 15.758 6.322 23.787C826.536 768.31 830.016 781.63 832 795l3.078.262c12.925 1.255 23.458 4.796 33.922 12.738l1.98 1.48c19.58 15.828 29.844 43.13 32.804 67.382.617 6.114.461 12.31.466 18.45l.002 2.306c-.016 11.704-.537 22.95-3.252 34.382l-.584 2.486c-2.012 8.373-4.288 16.486-7.416 24.514 20.597-10.54 35.333-28.18 42.716-50.128 3.264-10.694 4.506-20.85 4.596-31.997l.088-3.457c.13-18.187-5.289-35.258-10.962-52.356C920.423 793.68 913.03 764.312 923 736l1.133-3.426c7.063-19.902 20.425-36.024 39.565-45.267 14.387-6.588 31.412-8.035 46.443-2.56 12.111 5.31 19.736 12.527 24.949 24.773 3.67 10.004 3.352 23.16-.477 33.074-2.72 5.742-5.673 11.364-8.728 16.935-10.158 18.653-6.97 37.154-1.243 56.662q1.195 4.05 2.404 8.095c9.17 30.738 12.153 62.004 5.954 93.714l-.438 2.266c-5.967 29.86-19.56 57.795-39.562 80.734l-1.285 1.488c-6.342 7.306-13.011 13.613-20.715 19.512l-2.832 2.238C947.644 1040.147 917.668 1057 891 1057l.14 1.73c.547 12.268-3.687 23.109-11.847 32.165-12.323 11.907-32.848 16.222-49.484 16.238l-2.022.003q-2.109 0-4.218-.006c-2.102-.005-4.203 0-6.305.007-7.878 0-15.552-.318-23.389-1.216-3.373.093-4.467.79-6.875 3.079l-1.852 1.96c-16.643 15.797-48.813 17.577-70.272 17.325-25.414-.695-54.737-4.668-73.083-24.035-4.098-5.143-7.793-10.578-7.793-17.25l-2.517.492c-3.762.549-7.426.652-11.217.64l-2.18.004q-2.265 0-4.528-.006c-2.315-.005-4.63 0-6.945.007q-2.205 0-4.41-.004l-2.099.006c-4.874-.024-4.874-.024-7.104-1.139l-1 3.813c-4.255 12.665-13.326 19.848-24.687 25.812-16.942 8.319-35.632 10.672-54.313 11.375l-2.633.125c-23.345.585-49.943-3.4-69.367-17.125a191 191 0 0 1-2.812-2.937c-3.732-2.415-4.657-2.182-8.938-1.708-25.263 2.381-56.787 3.67-78.066-12.472-8.397-7.24-13.898-15.755-15.184-26.883-1.016-16.912 1.9-31.154 13.375-44.25 3.962-4.211 8.162-8.077 12.625-11.75-2.195-3.77-4.6-7.319-7.125-10.875-25.882-37.202-38.476-83.72-30.91-128.852C327.569 851.91 334.682 834.45 347 819c.696-.924 1.392-1.849 2.11-2.8.623-.727 1.247-1.452 1.89-2.2h2v-2c6.921-6.148 14.348-10.705 23-14l3.375-1.312c5.527-1.049 11.017-.84 16.625-.688l.144-1.856a108.3 108.3 0 0 1 2.981-17.582l.648-2.572c2.61-9.98 6.006-19.905 10.28-29.305 1.143-3.24 1.404-6.157 1.658-9.583l.328-4.107.165-2.161c3.306-42.602 14.356-83.4 35.96-120.51C450 605 450 605 450 603l-1.519-.728c-17.787-8.575-35.02-17.9-50.481-30.272l-2.488-1.91c-7.223-5.61-13.888-11.796-20.512-18.09l-2.512-2.383c-6.385-6.218-11.965-13.056-17.41-20.105-7.341-9.025-16.364-12.811-27.777-14.188C325 515 325 515 324 514c0-15.578 10.576-30.403 20-42l-3.375-1.187a170 170 0 0 1-10.062-4.188l-2.56-1.148C326 464 326 464 325.216 461.336L325 459l2.781-2.125c28.58-22.002 44.598-52.108 57.406-85.312l.921-2.311.81-2.186.712-1.876c.91-5.381-.95-10.62-2.67-15.67l-1.248-3.734-.661-1.96c-9.959-29.676-16.503-59.956-20.301-91.014l-.252-2.047c-1.916-15.77-2.736-31.457-2.748-47.327l-.002-2.407c.097-72.742.097-72.742 18.572-91.574C393.37 96.403 423.735 118.153 437 127m-49.914 6.8c-2.534 5.133-3.816 10.648-5.086 16.2l-.844 3.602C369.443 211.112 378.202 281.496 398 336l2 3 1.066-1.92c10.296-18.503 20.734-35.423 35.149-51.049C438 284 438 284 439 282c-6.048.55-11.306 1.904-17 4 9.954-12.774 23.26-19.227 38-25-3.133-3.45-6.6-5.789-10.625-8.062l-1.86-1.061c-4.973-2.752-9.951-4.646-15.515-5.877v-2c18.366-2.627 37.232-1.391 55 4-1.194-7.584-3.44-14.322-6.437-21.375l-1.335-3.158c-10.663-24.716-25.421-46.475-43.87-66.025a549 549 0 0 1-3.756-4.04c-9.034-9.469-23.233-22.869-36.914-24.09-3.732.696-5.42 1.348-7.602 4.489m436.352-.488-2.116 1.073c-6.738 3.574-12.294 8.132-17.874 13.286a190 190 0 0 1-4.124 3.645C772.841 174.34 755.52 205.691 743 238l-1.344 3.453c-.685 2.658-.632 4.01.344 6.547l3.113-.84c7.96-2.102 15.62-3.916 23.887-4.16l2.072-.062c8.55-.22 16.654-.39 24.928 2.062l-3.148 1.285C775.749 253.417 775.749 253.417 770 259v3l2.824.996C784.671 267.35 795.665 273.236 804 283v2l-2.266-.691-2.984-.872-2.953-.878c-2.829-.565-4.104-.348-6.797.441l1.312 1.257c4.365 4.261 8.25 8.7 11.938 13.555l1.684 2.215c9.098 12.171 16.597 25.24 23.066 38.973 2-1 2-1 3.262-4.234q.729-2.253 1.426-4.516l.78-2.515c5.994-19.84 10.67-40.206 13.532-60.735l.551-3.87c2.8-20.13 3.842-40.122 3.886-60.442l.019-3.176c.199-52.195.199-52.195-11.456-68.512-5.468-2.734-10.534-.263-15.562 2.313M481 321c-3.228 4.083-6.344 8.033-8 13 3.67-1.364 7.064-3.047 10.517-4.87 15.71-8.206 31.145-10.678 48.483-6.13 3.563.125 3.563.125 6 0 1.185-2.802 1.015-3.956 0-6.875-3.635-5.68-8.389-9.568-14.84-11.656-15.714-3.41-31.67 5.311-42.16 16.531m211-8c-1.467 2.374-2.18 4.28-3 7l1 3q2.094-.216 4.188-.437l2.355-.247C699 322 699 322 701.234 321.48c16.89-2.934 31.552.949 46.395 8.778C751 332 751 332 754 333c-4.763-13.179-15.76-20.741-27.828-26.617C714.26 301.19 700.723 303.08 692 313m-216.379 64.84c-5.416 7.683-9.014 15.037-11.621 24.16l-.742 2.473c-4.616 18.432-.553 37.643 8.709 53.834 2.255 3.695 4.894 6.735 8.033 9.693l1.793 1.816c10.373 9.903 23.043 13.723 37.125 13.434 12.283-.996 23.877-5.85 32.082-15.25 10.869-16.303 10.97-37.545 7.438-56.187C554.914 395.064 547.42 378.116 533 368c-19.676-11.787-42.418-8.02-57.379 9.84m208.32.476c-13.917 19.238-18.541 43.725-15.64 67.104 1.978 11.482 6.236 21.595 15.43 29.049 11.613 7.835 23.835 9.888 37.574 8.101 14.375-2.792 25.66-10.852 33.953-22.832 4.896-7.826 7.704-15.722 9.742-24.738l.582-2.375c2.926-18.374-1.03-37.788-11.832-52.937-7.935-10.068-17.932-16.93-30.75-18.688-15.51-1.712-29.286 5.61-39.059 17.316M386 477v1l2.082.12c30.88 1.853 60.5 6.604 89.61 17.34l2.73 1 2.393.9C485 498 485 498 489 498v-3c-29.566-17.293-69.526-21.324-103-18m353 19v2c6.896-.595 13.063-2.97 19.563-5.25 27.695-9.438 55.35-12.809 84.437-14.75v-1c-31.878-2.75-77.36-1.405-104 19m-152-12c.234 1.895.234 1.895 1 4 1.89 1.012 1.89 1.012 4.25 1.688l2.328.699c12.443 3.15 30.525 4.256 42.422-1.387 2.3-2.11 2.3-2.11 4-4-12.312-10.834-40.417-7.792-54-1m-27.875 2-2.243.667C548.775 489.205 541.43 492.933 534 497l-1.896 1.013c-8.005 4.285-15.238 9.029-22.104 14.987l-2.52 2.082c-10.137 8.642-19.236 19.127-20.675 32.77-.708 12.97 5.416 24.323 13.689 33.872 7.677 8.515 16.014 15.214 25.765 21.197 2.639 1.635 5.213 3.37 7.803 5.079 3.545 2.33 6.874 3.773 10.938 5v2l2 1-2.687 1.125c-3.94 2.23-5.568 4.314-8.313 7.875l-1.352 1.32c-24.4 24.863-37.938 62.541-37.683 96.934L497 726c3.608-4.357 6.547-8.963 9.512-13.77L508 710h1l-.621 2.816-.817 3.746-.808 3.692c-8.11 40.3 6.888 74.267 25.383 108.932C542.535 848.678 551.701 868.112 559 889l.923 2.635a501 501 0 0 1 2.452 7.303l.687 2.033c2.014 6.378 3.038 12.935 4.156 19.514.723 4.232 1.53 8.444 2.368 12.656a1860 1860 0 0 1 9.723 53.445l.435 2.606a7444 7444 0 0 1 4.354 26.287q.822 5 1.654 9.997.388 2.347.767 4.697c1.223 7.583 2.554 14.697 5.481 21.827.508 2.82.508 2.82.695 5.34l.23 2.78.2 2.818q.217 2.826.445 5.652c.06.823.12 1.647.18 2.496C594 1073 594 1073 595 1074c2.739.089 5.453.115 8.191.098l2.485-.005a2928 2928 0 0 0 7.886-.03q2.667-.008 5.334-.014 6.552-.017 13.104-.049l.113-2.676.2-3.637.175-3.55c.388-4.238 1.556-8.181 2.722-12.261 1.285-4.677 2.216-9.415 3.15-14.173l.642-3.243c2.384-12.2 4.47-24.452 6.563-36.705 3.558-20.823 7.248-41.61 11.435-62.317l.556-2.75q1.483-7.303 3.012-14.597c.403-1.95.787-3.904 1.17-5.859 1.762-8.783 4.319-17.165 7.262-25.607l.726-2.098c8.274-23.803 19.702-46.115 31.817-68.175 17.375-31.754 23.924-63.471 17.82-99.173-.509-3.053-.94-6.113-1.363-9.179 3.813 5.923 7.578 11.84 11 18h1c1.4-28.877-8.566-59.41-25-83l-1.695-2.656c-3.04-4.757-3.04-4.757-4.305-6.344h-2l-1-4h-2l-.797-1.742c-1.276-2.395-2.703-4.31-4.453-6.383l-1.703-2.07C685 618 685 618 679 616l12-6v-2l2.219-.844c19.294-8.021 37.685-25.032 45.781-44.406 2.957-11.09 2.086-20.726-3.625-30.875C720.022 508.396 691.676 492.164 665 485c-3.34-.557-6.615-.912-10-1l.375 3.75c-.04 8.466-4.671 15.827-10.312 21.875-7.584 7.067-16.72 12.926-26.063 17.375-1.345 13.383-1.345 13.383 1.582 19.078 5.976 7.02 13.766 11.038 22.418 13.922 13.363.878 24.323-.096 34.996-9.012 5.168-5.128 8.422-11.247 11.004-17.988l5 1c-.8 11.202-5.843 18.367-14 26-10.157 7.594-21.865 11.133-34.527 9.563-11.469-2.192-19.58-6.324-28.246-14.086C615 554 615 554 612.926 554.074c-2.249 1.081-3.607 2.342-5.364 4.114-9.784 8.773-22.52 12.353-35.535 11.652-13.066-1.937-23.755-7.824-31.91-18.246-4.58-6.637-6.39-11.557-6.117-19.594 2.297.09 2.297.09 5 1 1.703 2.879 1.703 2.879 3.25 6.563 4.517 9.848 11.063 15.73 21.309 19.59 10.378 2.556 21.994 2.117 31.441-3.153 5.64-3.694 12.315-8.1 14-15 .3-4.688.234-9.31 0-14l-2.492-1.25c-7.537-3.899-14.13-8.082-20.508-13.75l-2.219-1.934c-5.607-5.199-10.26-11.104-11.082-18.925-.01-2.405.072-4.748.301-7.141-4.919-.245-9.194.608-13.875 2M398 522q-2.062.638-4.125 1.27c-5.848 1.84-5.848 1.84-7.875 2.73l-1 2c3.628-.477 7-1.277 10.477-2.383 5.776-1.753 11.606-3.003 17.523-4.18l3.02-.63c16.29-3.269 32.53-4.142 49.105-4.432l5.535-.117q6.67-.142 13.34-.258v-3c-25.605-9.545-61.21.985-86 9m346-9v3l3.291.044c26.21.38 51.402 1.509 77.049 7.418l2.863.647 2.52.593c2.405.315 3.99.046 6.277-.702-23.715-8.616-47.48-13.087-72.687-13.25l-3.369-.029c-5.703.023-10.564.34-15.944 2.279m-294.266 516.852c-11.8 14.618-16.12 29.706-14.734 48.148 1.53 9.25 5.825 16.01 13 22 10.44 7 10.44 7 15 7l-.656-3.148c-2.976-14.688-4.185-29.226 3.656-42.852l2-1-.5 3.75c-1.477 15.248-2.218 31.182 5.926 44.727 7.536 7.292 25.765 5.703 35.574 5.71l2.93.003c14.997-.117 14.997-.117 17.07-2.19a113 113 0 0 0-.437-5.437c-1.174-14.296-.77-27.55 2.437-41.563l3-1 .044 2.316c.786 36.93.786 36.93 5.956 44.684 13.347-2.002 27.968-6.46 36.516-17.617 6.627-10.64 6.816-22.423 5.011-34.563-3.838-15.86-13.889-29.933-27.527-38.82-7.822-4.49-16.19-8.885-25-11l-2.54-.613c-26.752-5.417-57.691.885-76.726 21.465m209.586 1.386c-11.239 13.377-16.228 28.413-15.32 45.762.841 8.315 4.249 15.534 10.418 21.234 9.9 7.6 20.267 11.303 32.582 12.766q.726-2.06 1.438-4.125l.808-2.32c1.577-5.343 1.915-10.592 2.07-16.14l.063-2.128q.096-3.33.183-6.662l.131-4.543q.16-5.541.307-11.082h3c2.698 8.86 3.41 16.957 3.25 26.188l-.016 3.654c-.056 6.459-.381 12.755-1.234 19.158 14.658 2.198 30.233 1.95 44.875-.25l2.337-.331c4.472-.772 7.09-1.717 9.788-5.419 1.23-2.656 1.23-2.656 2.188-5.5l.98-2.844c1.33-4.244 1.96-7.794 1.965-12.27l.004-3.282-.012-3.417.012-3.38c-.007-5.54-.145-10.852-1.137-16.307h3c6.247 15.372 6.617 30.82 3 47 9.849-3.31 19.073-8.456 24-18 5.296-12.371 4.644-25.306 1-38l-.742-2.645c-5.203-15.336-18.341-26.332-32.196-33.73-31.945-14.956-72.173-9.18-96.742 16.613m-301.125-.203c-7.226 9.042-10.705 19.535-10.007 31.09 1.035 9.096 3.728 15.776 10.812 21.875 2.909 1.646 5.843 2.912 9 4l-.219-1.695c-1.513-13.076-2.416-26.852 5.219-38.305l3-1-.656 1.484c-4.269 11.462-4.268 26.284.586 37.52 2.59 4.832 2.59 4.832 5.843 5.945 10.808 2.216 21.22 2.353 32.227 2.051 1.035-3.104.764-4.598.27-7.73-1.12-9.426-.266-18.265 2.73-27.27l1-1 .044 1.721c.67 23.411.67 23.411 3.956 32.279l2 1 3-2-.643-1.788c-2.215-6.647-2.834-12.606-2.732-19.587l.035-3.078c.372-17.042 6.39-32.594 18.652-44.629C444 1020 444 1020 444 1017a510 510 0 0 0-13-5l-2.54-1c-24.64-8.348-53.45 1.074-70.265 20.035m431.243-16.91-2.19.84q-2.626 1.01-5.248 2.035c1.31 2.852 2.445 4.487 4.625 6.875 10.844 12.439 16.58 28.449 16.563 44.875v2.128c-.062 5.598-.82 10.718-2.188 16.122-.34 1.665-.676 3.332-1 5l4 1c3.672-8.235 4.523-15.23 4.25-24.187l-.055-3.463A633 633 0 0 0 808 1057h2c4.318 11.438 4.02 24.083 2 36 1.89 1.89 4.62 1.167 7.134 1.19 23.89-.029 23.89-.029 29.561-4.147 5.316-7.019 5.774-15.064 5.617-23.605l.01-2.67c-.047-5.86-.875-11.091-2.322-16.768 5.816 5.352 7.954 11.598 8.285 19.441.111 7.278-.28 14.35-1.285 21.559 8.4-3.602 14.326-7.363 17.813-16.062 3.97-12.166 2.267-23.183-3.375-34.5-8.336-14.308-21.924-22.316-37.5-26.747-6.328-1.489-12.276-1.874-18.75-1.879l-2.58-.037c-9.045-.02-16.8 2.07-25.17 5.35" id="svg-layer-1" style="pointer-events: all;"/><path fill="#838180" d="m524 640 1 3 2.183.384c2.775.607 5.248 1.447 7.895 2.471 10.889 4.123 21.714 7.87 33.047 10.582l2.935.71c13.856 3.176 27.41 4.235 41.565 4.165l2.39-.006c22.256-.097 43.679-3.352 64.692-11.005 4.054-1.379 7.435-1.513 11.73-1.114l3.622.293C698 650 698 650 700 652h-2v2h3l-1 2h-2c.625 1.938.625 1.938 2 4 3.125.75 3.125.75 6 1v2l-1 1 2 2-1 3 2.75-2.437c2.354-2.087 4.152-2.977 7.25-3.563 8.152 17.676 13.561 35.384 13 55h-1l-2-11-5 1v-2h-3l-1-1 .367 1.8q.534 2.639 1.055 5.278.565 2.862 1.156 5.719c1.157 5.853 1.618 11.237 1.422 17.203h-1l-1 16-3 1v2h2l1-2c-.615 6.523-.615 6.523-2.562 8.938-.475.35-.95.7-1.438 1.062h2l1 2 .375-3.937c.21-2.215.21-2.215.625-4.063l2-1c-.565 28.622-15.156 53.969-28.365 78.54A840 840 0 0 0 684 850l-1.079 2.117c-6.462 12.93-11.017 26.513-15.705 40.154C641.422 967.224 641.422 967.224 618 980c-6.293.9-10.823-.308-16-4-16.619-14.357-25.966-39.665-33.062-59.832C568 914 568 914 566 913c-.62-2.02-1.141-4.069-1.625-6.125C556.752 876.592 543 848.203 527.938 821c-18.69-33.889-28.808-68.256-19.938-107q.508-2.499 1-5c-3.96 5.529-7.75 11.022-11 17h-1c-1.324-30.067 8.848-61.975 27-86" id="svg-layer-2" style="pointer-events: all;"/><path fill="#848281" d="m573 484-.176 1.836c-.465 8.648 1.966 14.296 7.465 20.922 8.264 8.751 17.905 15.01 28.711 20.242.746 14.936.746 14.936-2.488 19.418-8.198 8.579-16.82 13.5-28.736 14.102-11.793.228-21.214-3.002-29.874-11.27-3.13-3.703-4.997-7.826-6.902-12.25-1.562-3.125-1.562-3.125-3-5h-4c-1.016 8.802 2.655 15.678 7.98 22.559 8.273 8.935 20.063 14.467 32.204 15.39 8.893.16 16.338-1.813 24.254-5.699l2.006-.978c3.5-1.827 6.094-3.69 8.779-6.6L612 554c4.08.432 6.493 2.788 9.625 5.313 10.648 8.258 22.789 11.793 36.258 10.289 13.12-2.532 23.202-8.955 31.117-19.602 3.355-5.225 4.56-9.834 5-16l-5-1-1.137 2.414c-5.529 11.448-11.84 19.41-24.203 23.762-11.15 2.51-22.813 1.952-32.66-4.176-4.6-3.554-8.765-7.147-12-12a109 109 0 0 1-.125-8.187l.027-2.272c.024-1.847.06-3.694.098-5.541l2.71-1.469c13.021-7.168 26.894-15.857 32.68-30.246 1.025-3.841.861-7.33.61-11.285 23.548.61 46.62 15.346 64 30l2.598 2.152c9.93 8.523 17.476 18.667 19.277 31.91.779 12.844-5.734 24.104-13.84 33.649L725 584l-1.691 1.977c-25.224 27.424-66.566 36.356-102.282 37.937-26.189.744-51.31-3.347-76.027-11.914-1.168-.4-2.336-.8-3.54-1.21-14.083-5.353-25.844-14.304-36.46-24.79l-2.012-1.793c-9.043-8.23-14.843-19.443-16.261-31.539-.583-12.792 6.247-22.558 14.183-31.922C516.8 504.048 548.787 482.036 573 484M767.648 1022.082 770 1024l1.914 1.387c11.431 8.69 17.304 22.434 19.711 36.183 1.175 10.942-.196 22.273-6.625 31.43l-1.687 2.563c-5.413 5.705-11.917 9.017-19.313 11.437l.438-1.957c2.837-14.403 2.978-28.297-2.438-42.043l-1-3h-3l.48 2.742c1.921 13.586 2.526 29.644-3.48 42.258l-1.285 2.719c-2.221 2.955-3.761 3.273-7.34 4.031l-2.977.672c-8.516 1.449-16.825 1.733-25.46 1.703l-3.432.012c-5.931-.007-11.642-.233-17.506-1.137l.484-3.637c.704-6.385.739-12.757.766-19.176l.063-3.619c.034-7.953-.996-14.96-3.313-22.568h-3l-.044 2.731q-.094 5.114-.218 10.227a652 652 0 0 0-.084 4.39c-.34 21.023-.34 21.023-4.654 29.652-13.79-1.638-27.922-6.206-36.95-17.422-6.88-10.728-7.215-22.1-4.987-34.39 4.006-16.896 14.279-30.86 28.937-40.188 28.39-16.392 66.998-17.869 93.648 3.082M559 1024l2.066 1.54c10.952 8.7 18.889 22.648 20.934 36.46.909 12.404.595 23.447-7.25 33.688-9.078 9.398-22.167 13.424-34.75 15.312-6.106-9.714-5.346-22.738-5.625-33.812l-.117-3.87q-.14-4.659-.258-9.318l-3 1c-3.443 15.044-3.67 29.367-2.121 44.691L529 1112c-3.609 3.609-14.847 2.236-19.687 2.25-8.066-.003-15.998-.409-24-1.437l-2.661-.306c-4.023-.589-6.08-.967-9.097-3.812-1.452-2.517-2.694-4.923-3.743-7.632l-.98-2.465c-1.95-6.089-1.99-12.02-1.957-18.348l.006-2.687c.039-5.913.337-11.695 1.119-17.563-5.582 4.234-6.407 10.982-7.687 17.5-.903 10.103.104 19.682 2.687 29.5-9.902-2.606-18.297-8.524-24-17-5.83-11.016-5.719-25.136-2.375-36.937 6.189-17.089 17.198-29.852 33.375-38.063 28.796-13.448 63.862-11.092 89 9" id="svg-layer-3" style="pointer-events: all;"/><path fill="#716E6F" d="M396.582 164.125c13.385 4.844 26.51 20.11 35.418 30.875l2.367 2.637C464 230.913 464 230.913 464 242l-2.076.076q-4.713.177-9.424.362l-3.266.119c-5.801.23-11.487.613-17.234 1.443v2l1.8.445c9.812 2.655 18.128 7.456 26.2 13.555-1.523 3.046-3.846 3.192-7 4.313-12.502 4.68-22.631 11.173-31 21.687l2.703-.91 3.547-1.152 3.516-1.16c3.035-.73 4.391-.897 7.234.222l-1.293 1.152C425.923 295.256 416.894 308.964 409 323l-2.55 4.492A1693 1693 0 0 0 400 339c-24.178-36.267-26.484-109.101-19-151 1.662-8.14 3.806-15.79 8.188-22.937 2.505-1.469 4.577-1.43 7.394-.938M838 165c8.45 7.207 9.715 23.108 10.757 33.601 1.63 22.784.593 45.83-2.757 68.399l-.504 3.412c-3.4 22.222-7.734 46.783-16.496 67.588l-2 1-1.328-2.832c-7.42-15.495-16.21-30.309-27.672-43.168l-2.555-2.883A746 746 0 0 0 789 283c3.659-1.315 6.08-.655 9.75.438l2.984.87L804 285c-4.049-9.489-15.43-15.66-24.523-19.48A349 349 0 0 0 770 262v-3c7.368-6.745 16.852-10.37 26-14-7.073-1.814-13.777-2.404-21.062-2.625l-3.202-.117q-3.867-.141-7.736-.258c8.215-15.624 17.543-29.577 29-43l2.031-2.395A365 365 0 0 1 800 191l2.254-2.602c23.59-26.802 23.59-26.802 35.746-23.398" id="svg-layer-4" style="pointer-events: all;"/><path fill="#403F3E" d="M661 908c1.387 3.816.633 6.698-.23 10.602l-.917 4.264-.51 2.33c-4.147 19.01-7.679 38.132-11.14 57.275l-1.152 6.354q-1.112 6.138-2.219 12.277l-.362 2.007a1701 1701 0 0 0-3.84 22.05l-.667 3.976q-.619 3.705-1.217 7.41c-.96 5.738-2.14 11.126-4.096 16.606-1.63 4.635-1.893 9.284-2.212 14.161l-.254 3.801L632 1074q-7.876.037-15.753.055-2.682.008-5.363.02-3.847.017-7.693.023l-2.436.015c-1.919 0-3.837-.051-5.755-.113-1.568-1.568-1.273-3.233-1.43-5.41l-.222-2.752a948 948 0 0 1-.422-5.719l-.23-2.78-.188-2.519c-.508-2.82-.508-2.82-1.873-6.144-2.593-6.647-3.36-13.815-4.49-20.824q-.397-2.403-.797-4.806-.843-5.082-1.675-10.166a7567 7567 0 0 0-4.36-26.275l-.435-2.605c-2.983-17.848-6.277-35.625-9.791-53.377-1.152-5.855-2.155-11.73-3.087-17.623l2-1 .791 1.933C584.402 951.994 584.402 951.994 596 968l1.688 2.348c3.808 4.874 8.257 7.745 14.32 9.101 4.088.36 6.646-.54 9.992-2.886a109 109 0 0 0 4-3.563l1.895-1.734C644.348 954.51 652.193 929.216 661 908" id="svg-layer-5" style="pointer-events: all;"/><path fill="#3F3E3D" d="m536 608 1.6.535q2.373.793 4.748 1.583 2.575.856 5.148 1.721c43.542 14.5 90.706 15.192 134.046-.691l2.45-.89 2.136-.808C688 609 688 609 691 610l-12 6 6 2c2.555 2.313 2.555 2.313 4.875 5l2.367 2.688C694 628 694 628 694 630l3 1v3h2c4 5.294 4 5.294 4 9-16.764 6.254-33.473 12.22-51 16l-2.447.535C625.986 664.41 598.475 664.24 575 659l-2.43-.52c-16.33-3.558-32.188-8.963-47.57-15.48.216-8.43 7.318-14.471 13-20l2-2.687c2.195-2.539 3.828-3.344 7-4.313l-2-1v-2l-2.812-.812c-3.04-1.133-4.089-1.887-6.188-4.188" id="svg-layer-6" style="pointer-events: all;"/><path fill="#82807F" d="M823 1009v5c2.354 1.43 3.48 2.087 6.25 1.625L831 1015v2l4-1c-1-3-1-3-4-5 12.97 0 24.835 6.858 33.953 15.777 8.577 9.313 14.736 19.938 14.293 32.993-.934 8.462-2.843 16.29-9.246 22.23-3.218 2.241-6.525 4.187-10 6-1.15-3.447-.713-4.506 0-8 .777-9.843 1.135-20.22-4-29-2.14-2.29-2.14-2.29-4-4l.977 3.855c1.144 5.18 1.408 10.165 1.398 15.457l-.005 2.78c-.134 7.461-.505 16.112-6.132 21.638-9.608 5.45-24.536 3.475-35.238 3.27-1-2-1-2-.578-4.055 2.091-10.654 1.402-22.815-2.422-32.945h-2c.01.747.02 1.494.032 2.263.041 3.37.067 6.741.093 10.112.017 1.176.034 2.351.05 3.563l.02 3.398.032 3.142C808 1082 808 1082 806 1084v-10l-1 6h-1l-.078-3.594c-.64-20.66-5.014-38.427-18.922-54.406l1.922-.371c2.078-.629 2.078-.629 3.328-2.692L791 1017h2l-1 4 6-2v-2l6-2v-2h-8c6.18-6.18 18.873-4.18 27-4" id="svg-layer-7" style="pointer-events: all;"/><path fill="#FBFBFC" d="M744.316 369.613c9.67 7.853 16.456 19.439 19.684 31.387l.676 2.492c4.362 19.528.831 39.577-9.676 56.508-8.704 11.6-19.797 20.218-34.277 22.68-14.144 1.664-27.22-.957-38.723-9.68-9.36-8.17-13.259-20.511-14.205-32.622a190 190 0 0 1-.107-8.065l.012-2.904c.128-8.112 1.153-15.56 3.3-23.409l.844-3.125c4.62-15.293 13.184-29.926 27.59-37.727 15.484-6.929 31.032-5.181 44.882 4.465m-59.66 24.203c-8.901 13.443-10.218 29.888-8.23 45.536 2.781 12.66 8.855 24.369 19.472 32.015 5.42 3.208 10.947 3.594 17.102 2.633 9.676-2.973 15.808-9.981 20.813-18.5 7.518-14.506 8.583-32.746 4.285-48.441-4.003-11.155-9.63-19.693-19.957-25.73-13.986-5.915-25.296 1.418-33.485 12.487M533.313 368.188c15.685 12.062 23.548 31.144 26.37 50.394 1.565 16.903 1.097 34.866-8.683 49.418-7.313 8.554-17.864 13.677-29 15-13.143 1.025-26.154-1.807-36.633-10.078-2.543-2.232-4.969-4.536-7.367-6.922l-1.715-1.61c-11.33-11.66-14.812-29.876-14.707-45.493.555-17.128 6.323-33.475 18.422-45.897 15.573-13.3 35.722-16.432 53.313-4.812M505 384v2c-.6.26-1.199.52-1.816.79-7.321 4.059-10.671 13.7-13.184 21.21-1.701 6.11-2.357 11.919-2.312 18.25l.012 2.497c.27 14.716 4.62 27.392 14.995 37.983 5.973 5.424 11.787 7.87 19.899 7.54 8.939-1.002 15.476-7.52 21.015-14.215 8.837-13.037 10.475-31.1 7.707-46.332-1.78-8.273-4.762-15.558-9.316-22.723h-2l-.562-1.687c-2.981-4.795-8.18-7.563-13.438-9.313-7.88-.946-14.106.1-21 4" id="svg-layer-8" style="pointer-events: all;"/><path fill="#82807F" d="m408.813 1008.813 2.908-.038c5.77-.011 10.785.4 16.279 2.225 1.75 2.313 1.75 2.313 3 5 2.38 3.301 4.173 5.496 8 7-1.25 3.404-2.679 6.14-4.812 9.063-8.016 11.974-9.989 24.963-12.188 38.937h-1l-1 5h-1l-1-18c-4.465 10.418-4.817 20.056-3.437 31.25L415 1093c-2.178 2.178-7.109 1.242-10.125 1.25-18.744-.084-18.744-.084-25.875-3.25-2.69-3.08-3.947-6.08-5-10l-.529-1.879c-2.203-9.918-1.569-22.852 2.529-32.121-3 1-3 1-4.937 4-3.267 6.861-4.485 14.612-6.063 22h-1l-1-9h-2l-.402 2.3-.536 3.013-.527 2.988C359 1075 359 1075 358 1078c.438 2.188.438 2.188 1 4-4.89-2.08-6.765-5.31-9-10-3.783-11.053-1.893-22.62 3-33 8.135-14.87 21.508-23.4 37.379-28.309 6.237-1.645 12.01-1.874 18.433-1.879M419 1026c-2 3-2 3-1.625 5l.625 2v3l-3 1h2l-.062 2.938C417 1043 417 1043 418 1044c.364 1.66.7 3.327 1 5l-6-3-1 3-2-3-2 1c-.625 2.563-.625 2.563-1 5h3l-.562 2.438L409 1057l1 1-3 1v2c1.688.75 1.688.75 4 1 3.122-2.081 4.911-3.867 7-7l4 5 .988-3.727 1.325-4.898.646-2.45c.996-3.656 2-6.844 3.728-10.237 1.385-2.836 1.577-4.024 1-7.063L429 1028l-2.187-.437zm-9 54-3 3h2v3h-4l-.68 1.953C403 1090 403 1090 400.617 1090.61l-2.742.141-2.758.172L393 1091v1h20l-.375-5.437c-.07-1.01-.14-2.02-.21-3.06-.138-.825-.274-1.652-.415-2.503z" id="svg-layer-9" style="pointer-events: all;"/><path fill="#050505" d="M717.61 380.824c10.703 5.26 16.355 15.411 20.39 26.176 4.697 13.796 3.5 32.625-2.738 45.703-5.187 9.442-11.658 17.86-22.262 21.297-6.81 1.088-12.144.27-17.95-3.484L693 469l-1.832-1.328c-7.615-6.533-13.609-18.977-14.992-28.863-.978-15.622-.458-29.998 7.824-43.809l1.27-2.148c7.48-11.253 19.221-16.171 32.34-12.028m-24.11 13.988c-3.505 5.111-3.208 11.226-2.5 17.188 2.389 3.583 3.907 4.628 7.938 6 3.872 0 5.848-.857 9.062-3 2.936-3.425 3.472-6.44 3.293-10.937-.49-3.456-1.63-5.985-3.293-9.063-4.588-3.059-9.92-3.508-14.5-.187" id="svg-layer-10" style="pointer-events: all;"/><path fill="#050504" d="M530.375 381.688c3.546 2.084 6.644 4.48 9.625 7.312v2h2c9.666 17.663 12.873 35.065 7.965 54.855-3.171 10.335-9.304 20.111-18.84 25.707-6.23 2.866-12.133 3.759-18.758 1.567-9.79-4.566-16.601-12.06-20.527-22.094-5.922-17.17-5.875-35.51 1.586-52.23 2.569-4.98 5.188-9.272 9.574-12.805h2v-2c7.93-4.485 16.81-6.324 25.375-2.312M507 395c-.937 2.688-.937 2.688-1 5h-2c-.56 9.517-.56 9.517 3 14l1.188 1.813c3.049 1.997 6.338 1.69 9.812 1.187 3.865-1.68 5.423-3.152 7-7 .795-5.68.112-10.093-3-15-4.631-4.631-9.816-3.05-15 0" id="svg-layer-11" style="pointer-events: all;"/><path fill="#3F3E3D" d="M837 130c5.673 3.647 7.026 9.58 8.55 15.901 3.116 14.538 4.62 29.384 4.548 44.232l-.005 3.387c-.005 3.535-.018 7.07-.03 10.605q-.008 3.617-.014 7.234-.017 8.82-.049 17.641h-1l-.044-2.161c-1.118-49.226-1.118-49.226-10.331-60.151C836 165 836 165 833.25 164.813c-13.23 4.833-25.497 17.45-34.25 28.187a1646 1646 0 0 1-3.687 4c-11.915 13.493-21.196 28.531-30.313 44l4 2-3.078.332c-8.507.964-16.663 2.322-24.922 4.668.567-5.945 2.3-10.93 4.563-16.437l1.08-2.657c3.38-8.186 7.175-16.102 11.357-23.906l.968-1.818C771.379 180.072 788.902 157.727 810 142l2.516-1.922C819.73 134.77 827.718 129.233 837 130M396.516 129.473c22.62 4.801 43.79 30.76 56.484 48.527l1.435 2.005C468.054 199.26 484.784 223.95 487 248l-3.402-.84c-7.52-1.83-14.857-3.597-22.598-4.16l2-2c-9.529-16.844-20.086-32.56-33-47l-1.567-1.77c-6.974-7.846-14.05-14.872-22.433-21.23l-1.957-1.621c-4.356-3.471-7.568-4.558-13.043-4.379-10.28 10.489-10.867 31.953-12 46h-1c-.967-9.343-.998-18.383-.375-27.75l.13-2.013c.638-9.486 1.768-18.775 3.62-28.112l.596-3.019c4.551-21.09 4.551-21.09 14.545-20.633" id="svg-layer-12" style="pointer-events: all;"/><path fill="#838180" d="M531 308c4.323 3.765 7.374 7.155 8 13l-1 2q-2.344-.216-4.687-.437l-2.637-.247C528 322 528 322 525.66 321.484c-16.794-3.058-32.148 1.542-46.613 9.907C476 333 476 333 473 333c8.699-13.604 19.152-24.645 35.531-28.613 8.115-1.271 15.313-.683 22.469 3.613M735.75 311.313c7.808 5.23 13.663 11.438 18.25 19.687v2c-4.036-1.516-7.754-3.423-11.562-5.437-14.23-7.187-29.966-8.937-45.498-5.002-2.345.53-4.544.594-6.94.439-1.157-3.47-.656-4.909.863-8.16 3.146-5.092 8.203-8.547 13.848-10.367 11.603-2.396 21.16.855 31.039 6.84" id="svg-layer-13" style="pointer-events: all;"/><path fill="#3F3E3D" d="M640 484v3c-8.406 4.742-16.825 5.364-26.312 5.313l-3.064-.009c-8.358-.117-16.483-.543-23.624-5.304v-3c16.064-6.349 37.29-8.635 53 0" id="svg-layer-14" style="pointer-events: all;"/><path fill="#F6F6F7" d="M521 394c3.904 4.034 4.342 8.317 4.29 13.707-.446 3.532-1.984 5.657-4.29 8.293-3.717 1.239-7.144 1.684-11 1-3.22-2.535-4.704-4.113-6-8a81 81 0 0 1-.062-4.687l.027-2.45L504 400h2l.063-2.312C507 395 507 395 510.125 393.063c4.092-1.482 6.889-.826 10.875.937" id="svg-layer-15" style="pointer-events: all;"/><path fill="#F7F7F8" d="M700.313 392.563c3.732.078 4.55.334 7.687 2.687 3.328 4.577 3.757 9.128 3 14.75-1.912 4.13-3.187 5.617-7.312 7.563-4.525.536-6.76-.33-10.688-2.563-2.282-3.423-2.297-4.841-2.312-8.875l-.051-3.117c.709-5.872 3.578-10.271 9.676-10.445" id="svg-layer-16" style="pointer-events: all;"/><path fill="#FCFCFD" d="M489 495v3c-6.803-.593-12.843-2.925-19.25-5.187C442.51 483.51 414.7 479.257 386 478v-1c33.474-3.324 73.434.707 103 18M843 477v1l-1.958.12c-31.246 1.987-61.266 6.474-90.734 17.34l-2.73 1-2.393.9C743 498 743 498 739 498c.994-2.597 1.692-3.806 4.074-5.309C774.716 479.023 808.75 474.045 843 477" id="svg-layer-17" style="pointer-events: all;"/><path fill="#F8F8F9" d="m463.688 510.813 3.916-.038 3.783-.005 3.413-.013c3.355.255 6.065 1.049 9.2 2.243v3l-3.307.044c-41.193.594-41.193.594-59.693 3.956l-3.238.58c-20.142 3.672-20.142 3.672-26.297 6.139C388 528 388 528 385 527c17.27-7.886 36.263-12.362 55-15l2.1-.31c7.172-.94 14.366-.874 21.587-.877" id="svg-layer-18" style="pointer-events: all;"/><path fill="#FCFCFD" d="M836 524c-3.285 1.074-5.453.896-8.797.11l-2.863-.648-3.09-.712c-25.716-5.551-51.038-6.398-77.25-6.75l1-4c29.044-6.23 63.805 1.633 91 12" id="svg-layer-19" style="pointer-events: all;"/><path fill="#737071" d="m419 1026 2.188.438L424 1027l5 1c1.69 6.763.209 10.564-2.652 16.813-2.076 4.908-3.215 9.993-4.348 15.187l-4-5-2.312 2.375C413 1060 413 1060 410 1062l-3-1c1-2 1-2 4-4h-2l1-5h-3l1-6c2 0 2 0 3.625 1.5L413 1049l1-3 4 3 1-1c-.692-3.692-.692-3.692-2-5-.04-2-.043-4 0-6l-2-1h4a565 565 0 0 0-1.687-5c-.313-2-.313-2 1.687-5M703 644c2.76 2.492 4.62 4.203 5 8l-1 2h-2l1 4 1-2h2c1.928 1.928 3.536 3.7 5 6-1 3-1 3-3 4l-1.5 1.563C708 669 708 669 706 669l-1-3-1-1v-2h2v-2l-1.687.75c-2.313.25-2.313.25-5.063-1.687L697 658l1-3 3-1h-3v-2l1.938-1.312c2.561-2.096 2.714-3.471 3.062-6.688" id="svg-layer-20" style="pointer-events: all;"/><path fill="#7E7B7B" d="M703 642c5.625 5.625 5.625 5.625 7.238 8.988l1.045 2.139 1.03 2.186 1.087 2.244q1.312 2.716 2.6 5.443c-3.38-1.126-4.473-2.004-6.125-5.125L709 656l-1 2h-2l-1-4h2c-.498-3.735-.875-5.812-3-9l-.75 2.438C702 650 702 650 700.21 650.68c-2.395.347-4.43.277-6.835.008-.776-.08-1.552-.158-2.352-.239C689 650 689 650 687 648z" id="svg-layer-21" style="pointer-events: all;"/><path fill="#626060" d="m805 1012-1 5c-3 1-3 1-6 0l-1 4h-5l1-4h-2l-2 6-1-2c-2.562-.625-2.562-.625-5-1l-1-3c7.7-2.993 14.637-5.253 23-5" id="svg-layer-22" style="pointer-events: all;"/><path fill="#787675" d="M716 704h2v2c2.49.687 4.379 1 7 1l2-2 2 8h1v13c-3.335-4.169-5.907-8.108-8.535-12.695-1.333-2.098-2.705-3.58-4.465-5.305-.687-2.187-.687-2.187-1-4" id="svg-layer-23" style="pointer-events: all;"/><path fill="#767373" d="m719 734 3 1q.08 4.125.125 8.25l.05 2.355c.036 4.116-.117 6.764-2.175 10.395a127 127 0 0 0-1.125 6.75l-.508 3.547L718 769h-1v-7h-2l1-3h2c-.875-3.875-.875-3.875-2-5l-1-3h2c1.521-3.042 1.374-6.28 1.563-9.625l.13-2.14q.158-2.618.307-5.235" id="svg-layer-24" style="pointer-events: all;"/><path fill="#615F5F" d="M428 1012c5.691 1.097 10.746 2.54 16 5-.386 2.798-.801 3.82-2.937 5.75C439 1024 439 1024 437 1024v-2l-3-1c-1.605-1.559-1.605-1.559-3.187-3.437l-1.606-1.872C428 1014 428 1014 428 1012" id="svg-layer-25" style="pointer-events: all;"/><path fill="#747171" d="M420 1064h3l.113 3.332c.36 8.59 1.07 16.465 3.887 24.668l-4 1c-4.168-9.966-4.175-18.316-3-29" id="svg-layer-26" style="pointer-events: all;"/><path fill="#737070" d="M805 1058c2.947 4.994 2.33 10.17 2.313 15.813l.048 3.236c.004 6.107-.443 10.553-3.361 15.951l-4-1q.677-3.627 1.375-7.25l.383-2.066c1.027-5.291 1.027-5.291 2.336-7.684 1.424-3.143 1.114-6.368 1.031-9.75l-.027-2.113c-.024-1.713-.06-3.425-.098-5.137" id="svg-layer-27" style="pointer-events: all;"/><path fill="#747171" d="m833 1010 1 2c2.063 1.125 2.063 1.125 4 2h-3v2c-3.567 1.02-6.627 1.55-10.187.125C823 1015 823 1015 822 1013l1-2h-8v-1c6.058-1.01 11.951-1.356 18 0" id="svg-layer-28" style="pointer-events: all;"/><path fill="#817F7E" d="M365 1070h1l2 18-10-5v-4l6-2z" id="svg-layer-29" style="pointer-events: all;"/><path fill="#726F70" d="m410 1080 2 1c.604 3.651.745 7.304 1 11h-20v-1l2.082-.078 2.73-.172 2.708-.14c3.137-.771 3.681-2.033 5.48-4.61h3v-3l-2-1z" id="svg-layer-30" style="pointer-events: all;"/><path fill="#716E6F" d="M363 1062h1v15l-6 2c0-3.217.233-5.551.938-8.625l.527-2.352C360 1066 360 1066 361 1064h2z" id="svg-layer-31" style="pointer-events: all;"/></svg>